<?xml version="1.0" encoding="UTF-8" standalone="no"?>
<!-- Created with Inkscape (http://www.inkscape.org/) -->

<svg
   width="228.84782mm"
   height="53.181252mm"
   viewBox="0 0 228.84782 53.181254"
   version="1.1"
   id="svg1"
   xml:space="preserve"
   inkscape:version="1.4.3 (0d15f75, 2025-12-25)"
   sodipodi:docname="Wagelab Logo SVG.svg"
   inkscape:export-filename="Wagelab Logo 200200.png"
   inkscape:export-xdpi="96"
   inkscape:export-ydpi="96"
   xmlns:inkscape="http://www.inkscape.org/namespaces/inkscape"
   xmlns:sodipodi="http://sodipodi.sourceforge.net/DTD/sodipodi-0.dtd"
   xmlns="http://www.w3.org/2000/svg"
   xmlns:svg="http://www.w3.org/2000/svg"><sodipodi:namedview
     id="namedview1"
     pagecolor="#000000"
     bordercolor="#000000"
     borderopacity="0.25"
     inkscape:showpageshadow="2"
     inkscape:pageopacity="0.0"
     inkscape:pagecheckerboard="false"
     inkscape:deskcolor="#d1d1d1"
     inkscape:document-units="mm"
     inkscape:zoom="1.0569889"
     inkscape:cx="431.88724"
     inkscape:cy="100.28488"
     inkscape:window-width="1920"
     inkscape:window-height="974"
     inkscape:window-x="-11"
     inkscape:window-y="-11"
     inkscape:window-maximized="1"
     inkscape:current-layer="layer1"
     showgrid="false"><inkscape:page
       x="4.4384601e-06"
       y="2.771711e-07"
       width="228.84781"
       height="53.181255"
       id="page19"
       margin="0"
       bleed="0" /><inkscape:grid
       id="grid10"
       units="mm"
       originx="-60.187229"
       originy="-96.186094"
       spacingx="1"
       spacingy="0.99999997"
       empcolor="#0099e5"
       empopacity="0.30196078"
       color="#0099e5"
       opacity="0.14901961"
       empspacing="5"
       enabled="true"
       visible="false" /></sodipodi:namedview><defs
     id="defs1"><linearGradient
       id="linearGradient10-3"><stop
         style="stop-color:#4b83bf;stop-opacity:1;"
         offset="0"
         id="stop18" /><stop
         style="stop-color:#4b3bbf;stop-opacity:0.65371025;"
         offset="0.99999976"
         id="stop19" /></linearGradient><clipPath
       clipPathUnits="userSpaceOnUse"
       id="clipPath5"><rect
         style="fill:#000000;fill-opacity:1;stroke:#ffffff;stroke-width:0.2"
         id="rect6"
         width="25.808495"
         height="27.349295"
         x="125.2915"
         y="-41.109203"
         transform="rotate(-144.4)" /></clipPath><clipPath
       clipPathUnits="userSpaceOnUse"
       id="clipPath6"><rect
         style="fill:#ff00ff;fill-opacity:1;stroke:#ff00ff;stroke-width:0.2;stroke-opacity:1"
         id="rect10"
         width="74.486382"
         height="39.203362"
         x="175.54393"
         y="241.91393"
         ry="9.4374332"
         transform="matrix(-0.88620358,-0.46329604,-0.46329604,0.88620358,0,0)" /></clipPath></defs><g
     inkscape:label="Layer 1"
     inkscape:groupmode="layer"
     id="layer1"
     transform="translate(-60.187216,-95.039185)"><g
       id="g2"
       transform="matrix(0.75322427,0,0,0.75322427,43.089792,30.015289)"><g
         id="g1"
         transform="translate(8.0337106,2.8933803)"><text
           xml:space="preserve"
           style="font-style:normal;font-variant:normal;font-weight:bold;font-stretch:normal;font-size:61.6067px;line-height:1;font-family:'Nunito Sans';-inkscape-font-specification:'Nunito Sans Bold';letter-spacing:-2.70669px;word-spacing:1.37297px;writing-mode:lr-tb;direction:ltr;fill:#000000;fill-opacity:1;stroke:#000000;stroke-width:1.2474;stroke-opacity:1"
           x="92.7957"
           y="141.83308"
           id="text1"><tspan
             sodipodi:role="line"
             id="tspan1"
             style="font-style:normal;font-variant:normal;font-weight:bold;font-stretch:normal;line-height:1;font-family:'Nunito Sans';-inkscape-font-specification:'Nunito Sans Bold';letter-spacing:-2.70669px;word-spacing:1.37297px;fill:#000000;fill-opacity:1;stroke:#000000;stroke-width:1.2474;stroke-opacity:1"
             x="92.7957"
             y="141.83308"
             dx="2.1529574"
             rotate="0 0 0 0 0 0 0 0"><tspan
               style="fill:#ffffff;fill-opacity:1;stroke:#ffffff;stroke-opacity:1"
               id="tspan2">wage</tspan><tspan
               style="letter-spacing:-2.70669px;fill:#ff00ff;fill-opacity:1;stroke:#ff00ff;stroke-opacity:1"
               id="tspan11">lab</tspan></tspan></text><path
           id="rect1"
           style="fill:#ff00ff;fill-opacity:1;stroke:#ff00ff;stroke-width:1;stroke-dasharray:none;stroke-opacity:1"
           d="m 16.949249,-85.852218 c 1.337438,0.724743 2.871846,1.135634 4.505702,1.135634 5.228338,0 9.437192,-4.209045 9.437192,-9.437383 l -1.14e-4,-45.453793 c 0,-5.22834 -4.208806,-9.43765 -9.437144,-9.43765 -1.064503,0 -2.086855,0.17454 -3.039932,0.49659 -1.369836,0.3445 -2.70487,0.95164 -3.914375,1.82904 l -5.6777483,4.119 7.29e-5,-8.60217 c 0,-2.05361 -0.6490134,-3.95007 -1.7544723,-5.49589 -0.1097359,-0.16853 -0.2266275,-0.33355 -0.3504795,-0.49519 -0.7134935,-0.9312 -1.5977056,-1.65855 -2.5930985,-2.17959 -1.3911596,-0.80599 -3.0092578,-1.26698 -4.73909385,-1.26698 -2.97959665,0 -5.62812055,1.3672 -7.35525265,3.51084 l -16.9627118,13.51931 c -4.661324,3.71508 -5.943896,9.92933 -2.875864,13.93351 3.068032,4.00418 9.290437,4.23709 13.951762,0.52202 l 3.804591,-3.03227 -3e-4,26.43799 c 0,5.22833 4.2095031,9.437427 9.43784109,9.437427 5.22833801,0 9.43719191,-4.209047 9.43719191,-9.437387 l 1.66e-5,-14.02406 c 0.1100675,-0.0741 0.2186847,-0.15073 0.3268138,-0.22917 l 2.8672176,-2.08025 4.5e-5,27.928625 c 0,3.594482 1.989776,6.707364 4.93214,8.301797 z"
           transform="rotate(152.4)" /></g><ellipse
         style="fill:#ff00ff;fill-opacity:1;stroke:#ff00ff;stroke-width:0.95099;stroke-dasharray:none;stroke-opacity:1"
         id="path9"
         cx="98.682877"
         cy="95.899025"
         rx="8.9483976"
         ry="8.650116" /></g></g></svg>
